<svg width="203" height="30" viewBox="0 0 203 30" fill="none" xmlns="http://www.w3.org/2000/svg">
<path d="M0 29.5576L11.0992 0.442358H22.5603L33.6595 29.5576H20.7105L19.7051 25.7373H13.0295L11.9035 29.5576H0ZM15.1206 18.4182H17.7748L16.4879 12.5067H16.4075L15.1206 18.4182Z" fill="#373737"/>
<path d="M38.1535 29.5576V10.3351H30.0302V0.442358H58.2607V10.3351H50.1374V29.5576H38.1535Z" fill="#373737"/>
<path d="M56.3245 27.7078V16.6086C59.0993 18.3378 62.1958 19.6247 65.7346 19.6247C66.9411 19.6247 67.9464 19.4638 68.7105 19.0617L59.7427 0.442358H72.2092L75.9491 10.4155H76.0295L78.925 0.442358H90.3861L83.5497 18.4987C80.051 27.748 73.0135 30 66.6596 30C62.8794 30 58.8178 29.1957 56.3245 27.7078Z" fill="#373737"/>
<path d="M91.0701 27.6273V17.7346C94.9709 20.2681 98.9119 21.193 100.641 21.193C101.848 21.193 102.129 20.7105 102.129 20.2279C102.129 19.6649 101.767 19.4236 101.244 19.3029C99.8368 18.941 95.7752 18.4987 92.7993 15.8847C91.2711 14.5174 90.2256 12.6273 90.2256 9.81233C90.2256 3.98123 94.7296 0 102.089 0C105.628 0 109.81 0.924933 112.464 2.29222V11.8231C108.684 9.93297 105.145 9.24933 103.657 9.24933C102.491 9.24933 102.169 9.69169 102.169 10.134C102.169 10.7373 102.612 10.9786 103.094 11.1394C104.301 11.5013 108.322 11.9839 111.177 14.2359C113.148 15.8445 114.113 17.8954 114.113 20.5094C114.113 26.0992 109.609 30 101.968 30C98.3087 30 93.9253 29.1153 91.0701 27.6273Z" fill="#373737"/>
<path d="M123.02 29.5576V10.3351H114.897V0.442358H143.127V10.3351H135.004V29.5576H123.02Z" fill="#373737"/>
<path d="M146.245 29.5576V0.442358H158.229V29.5576H146.245Z" fill="#373737"/>
<path d="M161.114 15C161.114 6.3941 168.192 0 178.085 0C181.382 0 184.801 0.723861 186.65 1.68901V12.4263C184.64 11.4209 182.106 10.5764 179.412 10.5764C175.31 10.5764 173.098 12.5469 173.098 15.2413C173.098 17.9357 175.31 19.866 179.412 19.866C182.106 19.866 184.801 19.0617 186.811 17.9357V28.1903C184.921 29.1957 181.423 30 177.964 30C168.232 30 161.114 23.6461 161.114 15Z" fill="#373737"/>
<path d="M189.951 23.807C189.951 20.3887 192.605 17.6139 196.144 17.6139C199.683 17.6139 202.337 20.3887 202.337 23.807C202.337 27.2252 199.683 30 196.144 30C192.605 30 189.951 27.2252 189.951 23.807Z" fill="#373737"/>
</svg>
